<svg width="38" height="36" viewBox="0 0 38 36" fill="none" xmlns="http://www.w3.org/2000/svg">
<path fill-rule="evenodd" clip-rule="evenodd" d="M18.9049 0C14.5512 0.00225887 10.3403 1.54424 7.0251 4.35022C3.70992 7.1562 1.50662 11.0432 0.809188 15.3162C0.111755 19.5892 0.965654 23.9695 3.21822 27.6739C5.47078 31.3784 8.97512 34.1654 13.1046 35.5365C14.0156 35.7056 14.3588 35.141 14.3588 34.6609C14.3588 34.1808 14.3406 32.7888 14.3345 31.2669C9.23271 32.3691 8.15466 29.114 8.15466 29.114C7.32259 27.0004 6.12002 26.4448 6.12002 26.4448C4.45587 25.3155 6.24454 25.3366 6.24454 25.3366C8.08786 25.4665 9.0566 27.2178 9.0566 27.2178C10.6904 30.0048 13.3475 29.1986 14.3922 28.7275C14.5562 27.5469 15.033 26.7437 15.5583 26.2878C11.483 25.8288 7.20111 24.2647 7.20111 17.2776C7.17585 15.4655 7.85213 13.7131 9.09 12.383C8.90172 11.924 8.27309 10.07 9.26916 7.55178C9.26916 7.55178 10.8088 7.06262 14.3133 9.42085C17.3191 8.60351 20.4906 8.60351 23.4965 9.42085C26.9979 7.06262 28.5345 7.55178 28.5345 7.55178C29.5336 10.064 28.905 11.918 28.7167 12.383C29.9585 13.7133 30.6361 15.4688 30.6086 17.2836C30.6086 24.2859 26.3176 25.8288 22.2362 26.2787C22.8921 26.8464 23.4782 27.9545 23.4782 29.6575C23.4782 32.0973 23.457 34.06 23.457 34.6609C23.457 35.147 23.788 35.7147 24.7172 35.5365C28.8472 34.1652 32.3519 31.3777 34.6044 27.6727C36.8569 23.9676 37.7104 19.5866 37.0122 15.3132C36.3139 11.0398 34.1095 7.15278 30.7933 4.34729C27.477 1.54179 23.2651 0.000827084 18.9109 0H18.9049Z" fill="#191717"/>
<path d="M7.51099 26.1822C7.47151 26.2728 7.32574 26.3 7.20731 26.2365C7.08888 26.1731 7.00082 26.0554 7.04333 25.9618C7.08585 25.8682 7.22857 25.844 7.34701 25.9074C7.46544 25.9708 7.55654 26.0916 7.51099 26.1822Z" fill="#191717"/>
<path d="M8.25451 27.0063C8.19162 27.0378 8.11967 27.0466 8.05098 27.0312C7.98229 27.0158 7.92113 26.9771 7.87796 26.9218C7.75952 26.7949 7.73522 26.6198 7.82632 26.5413C7.91742 26.4628 8.08142 26.499 8.19985 26.6259C8.31829 26.7527 8.34562 26.9278 8.25451 27.0063Z" fill="#191717"/>
<path d="M8.97776 28.0542C8.8654 28.1327 8.67407 28.0542 8.56779 27.8972C8.5384 27.8691 8.51503 27.8353 8.49906 27.7979C8.48309 27.7606 8.47485 27.7204 8.47485 27.6798C8.47485 27.6392 8.48309 27.5991 8.49906 27.5617C8.51503 27.5244 8.5384 27.4906 8.56779 27.4624C8.68015 27.3869 8.87148 27.4624 8.97776 27.6164C9.08405 27.7704 9.08709 27.9757 8.97776 28.0542V28.0542Z" fill="#191717"/>
<path d="M9.95839 29.0686C9.85817 29.1803 9.65471 29.1501 9.48769 28.9991C9.32067 28.8482 9.28118 28.6428 9.38139 28.5341C9.48161 28.4254 9.68507 28.4556 9.85817 28.6036C10.0313 28.7515 10.0647 28.9599 9.95839 29.0686V29.0686Z" fill="#191717"/>
<path d="M11.334 29.6605C11.2884 29.8024 11.0819 29.8658 10.8754 29.8054C10.6689 29.7451 10.5323 29.576 10.5717 29.431C10.6112 29.2861 10.8208 29.2197 11.0303 29.2861C11.2398 29.3525 11.3734 29.5126 11.334 29.6605Z" fill="#191717"/>
<path d="M12.8341 29.7631C12.8341 29.911 12.6641 30.0379 12.4454 30.0409C12.2268 30.0439 12.0476 29.9231 12.0476 29.7752C12.0476 29.6272 12.2177 29.5004 12.4363 29.4974C12.655 29.4944 12.8341 29.6121 12.8341 29.7631Z" fill="#191717"/>
<path d="M14.231 29.5307C14.2584 29.6787 14.1065 29.8327 13.8879 29.8689C13.6692 29.9051 13.4779 29.8176 13.4506 29.6726C13.4233 29.5277 13.5812 29.3707 13.7937 29.3314C14.0063 29.2922 14.2037 29.3828 14.231 29.5307Z" fill="#191717"/>
</svg>
