<svg width="48" height="36" viewBox="0 0 48 36" fill="none" xmlns="http://www.w3.org/2000/svg">
<g clip-path="url(#clip0_2551_3)">
<path d="M10.9749 35.3948V17.1657L5.32151 11.9936L0.251953 9.12354V32.1779C0.251953 33.9578 1.6941 35.3948 3.46892 35.3948H10.9749Z" fill="#4285F4"/>
<path d="M36.71 35.3949H44.216C45.9961 35.3949 47.4329 33.9526 47.4329 32.1779V9.12378L41.6909 12.4111L36.71 17.1657V35.3949Z" fill="#34A853"/>
<path d="M10.9751 17.1658L10.2058 10.0432L10.9751 3.22607L23.8426 12.8768L36.7101 3.22607L37.5706 9.67512L36.7101 17.1658L23.8426 26.8165L10.9751 17.1658Z" fill="#EA4335"/>
<path d="M36.71 3.22594V17.1657L47.4329 9.12356V4.83433C47.4329 0.856204 42.8918 -1.41161 39.7126 0.974155L36.71 3.22594Z" fill="#FBBC04"/>
<path d="M0.251953 9.12364L5.18365 12.8226L10.9749 17.1658V3.22602L7.9723 0.97424C4.78759 -1.41171 0.251953 0.856288 0.251953 4.83423V9.12364Z" fill="#C5221F"/>
</g>
<defs>
<clipPath id="clip0_2551_3">
<rect width="47.1854" height="35.57" fill="white" transform="translate(0.249756)"/>
</clipPath>
</defs>
</svg>
