<svg width="36" height="36" viewBox="0 0 36 36" fill="none" xmlns="http://www.w3.org/2000/svg">
<g clip-path="url(#clip0_2551_9)">
<path d="M27.2384 0H8.34185C3.7376 0 0.00512695 3.73248 0.00512695 8.33672V27.2333C0.00512695 31.8375 3.7376 35.57 8.34185 35.57H27.2384C31.8427 35.57 35.5751 31.8375 35.5751 27.2333V8.33672C35.5751 3.73248 31.8427 0 27.2384 0Z" fill="url(#paint0_radial_2551_9)"/>
<path d="M27.2384 0H8.34185C3.7376 0 0.00512695 3.73248 0.00512695 8.33672V27.2333C0.00512695 31.8375 3.7376 35.57 8.34185 35.57H27.2384C31.8427 35.57 35.5751 31.8375 35.5751 27.2333V8.33672C35.5751 3.73248 31.8427 0 27.2384 0Z" fill="url(#paint1_radial_2551_9)"/>
<path d="M17.7913 3.89038C14.0178 3.89038 13.5441 3.90692 12.0622 3.9743C10.5829 4.04211 9.57323 4.27623 8.68982 4.61984C7.77583 4.97471 7.00066 5.44949 6.2284 6.22202C5.45545 6.99442 4.98067 7.76959 4.62469 8.68316C4.28011 9.56685 4.04571 10.577 3.97915 12.0555C3.91288 13.5376 3.89551 14.0114 3.89551 17.7851C3.89551 21.5587 3.91218 22.0308 3.97943 23.5128C4.04751 24.992 4.28164 26.0017 4.62497 26.8851C4.98011 27.7991 5.45489 28.5743 6.22743 29.3466C6.99955 30.1195 7.77472 30.5954 8.68801 30.9503C9.57212 31.2939 10.582 31.528 12.0609 31.5958C13.543 31.6632 14.0163 31.6797 17.7896 31.6797C21.5635 31.6797 22.0357 31.6632 23.5176 31.5958C24.9969 31.528 26.0077 31.2939 26.8918 30.9503C27.8054 30.5954 28.5794 30.1195 29.3514 29.3466C30.1244 28.5743 30.599 27.7991 30.9551 26.8856C31.2966 26.0017 31.5312 24.9917 31.6006 23.5131C31.6672 22.0311 31.6846 21.5587 31.6846 17.7851C31.6846 14.0114 31.6672 13.5379 31.6006 12.0558C31.5312 10.5766 31.2966 9.56699 30.9551 8.68358C30.599 7.7696 30.1244 6.99442 29.3514 6.22202C28.5786 5.44921 27.8056 4.97443 26.891 4.61998C26.0052 4.27623 24.9949 4.04197 23.5157 3.9743C22.0336 3.90692 21.5617 3.89038 17.787 3.89038H17.7913ZM16.5448 6.39431C16.9148 6.39376 17.3276 6.39431 17.7913 6.39431C21.5013 6.39431 21.9409 6.40765 23.4059 6.47421C24.7606 6.53618 25.4959 6.76252 25.9857 6.95274C26.6342 7.2045 27.0965 7.5056 27.5825 7.99205C28.0688 8.47836 28.3698 8.94146 28.6222 9.58992C28.8124 10.079 29.0391 10.8143 29.1007 12.169C29.1673 13.6338 29.1817 14.0737 29.1817 17.7819C29.1817 21.49 29.1673 21.9301 29.1007 23.3947C29.0388 24.7494 28.8124 25.4847 28.6222 25.9739C28.3704 26.6224 28.0688 27.0841 27.5825 27.5701C27.0962 28.0564 26.6345 28.3574 25.9857 28.6093C25.4965 28.8004 24.7606 29.0261 23.4059 29.0881C21.9412 29.1547 21.5013 29.1691 17.7913 29.1691C14.0812 29.1691 13.6414 29.1547 12.1768 29.0881C10.8221 29.0256 10.0868 28.7992 9.59657 28.609C8.94825 28.3571 8.48501 28.0562 7.9987 27.5699C7.51239 27.0835 7.21144 26.6216 6.95897 25.9728C6.76876 25.4836 6.54214 24.7483 6.48045 23.3936C6.41389 21.9288 6.40055 21.4889 6.40055 17.7784C6.40055 14.068 6.41389 13.6303 6.48045 12.1655C6.54242 10.8108 6.76876 10.0755 6.95897 9.58575C7.21088 8.93729 7.51239 8.47419 7.99884 7.98788C8.48515 7.50157 8.94825 7.20048 9.59671 6.94815C10.0865 6.7571 10.8221 6.53131 12.1768 6.46907C13.4586 6.41113 13.9553 6.39376 16.5448 6.39084V6.39431ZM25.2082 8.70136C24.2877 8.70136 23.5408 9.4475 23.5408 10.3682C23.5408 11.2887 24.2877 12.0355 25.2082 12.0355C26.1287 12.0355 26.8755 11.2887 26.8755 10.3682C26.8755 9.44764 26.1287 8.70081 25.2082 8.70081V8.70136ZM17.7913 10.6495C13.8508 10.6495 10.6559 13.8444 10.6559 17.7851C10.6559 21.7257 13.8508 24.9191 17.7913 24.9191C21.7319 24.9191 24.9257 21.7257 24.9257 17.7851C24.9257 13.8446 21.7316 10.6495 17.791 10.6495H17.7913ZM17.7913 13.1534C20.3491 13.1534 22.4229 15.2269 22.4229 17.7851C22.4229 20.3429 20.3491 22.4167 17.7913 22.4167C15.2333 22.4167 13.1598 20.3429 13.1598 17.7851C13.1598 15.2269 15.2333 13.1534 17.7913 13.1534Z" fill="white"/>
</g>
<defs>
<radialGradient id="paint0_radial_2551_9" cx="0" cy="0" r="1" gradientUnits="userSpaceOnUse" gradientTransform="translate(9.45341 38.3096) rotate(-90) scale(35.2525 32.7876)">
<stop stop-color="#FFDD55"/>
<stop offset="0.1" stop-color="#FFDD55"/>
<stop offset="0.5" stop-color="#FF543E"/>
<stop offset="1" stop-color="#C837AB"/>
</radialGradient>
<radialGradient id="paint1_radial_2551_9" cx="0" cy="0" r="1" gradientUnits="userSpaceOnUse" gradientTransform="translate(-5.95299 2.56229) rotate(78.681) scale(15.7581 64.9553)">
<stop stop-color="#3771C8"/>
<stop offset="0.128" stop-color="#3771C8"/>
<stop offset="1" stop-color="#6600FF" stop-opacity="0"/>
</radialGradient>
<clipPath id="clip0_2551_9">
<rect width="35.57" height="35.57" fill="white" transform="translate(0.00512695)"/>
</clipPath>
</defs>
</svg>
