<svg width="32" height="32" viewBox="0 0 32 32" fill="none" xmlns="http://www.w3.org/2000/svg">
<path d="M1 6.05263C1 4.28421 1 3.4 1.34421 2.72421C1.64696 2.13004 2.13004 1.64696 2.72421 1.34421C3.4 1 4.28421 1 6.05263 1H25.9474C27.7158 1 28.6 1 29.2758 1.34421C29.87 1.64696 30.353 2.13004 30.6558 2.72421C31 3.4 31 4.28421 31 6.05263V25.9474C31 27.7158 31 28.6 30.6558 29.2758C30.353 29.87 29.87 30.353 29.2758 30.6558C28.6 31 27.7158 31 25.9474 31H6.05263C4.28421 31 3.4 31 2.72421 30.6558C2.13004 30.353 1.64696 29.87 1.34421 29.2758C1 28.6 1 27.7158 1 25.9474V6.05263Z" stroke="black" stroke-linecap="round"/>
<path d="M26.2632 30.9999L16.7895 7.31573M31 4.15784L1 10.4736M16.7895 20.7842C16.7895 24.1915 13.4105 26.5852 11.9374 27.4678C11.7339 27.5905 11.5008 27.6554 11.2632 27.6554C11.0255 27.6554 10.7924 27.5905 10.5889 27.4678C9.11579 26.5852 5.73684 24.1915 5.73684 20.7826C5.73684 17.4399 8.41474 15.2105 11.2632 15.2105C14.2111 15.2105 16.7895 17.4399 16.7895 20.7842Z" stroke="black"/>
<path d="M11.2633 22.3157C12.1353 22.3157 12.8422 21.6088 12.8422 20.7368C12.8422 19.8648 12.1353 19.1578 11.2633 19.1578C10.3912 19.1578 9.68433 19.8648 9.68433 20.7368C9.68433 21.6088 10.3912 22.3157 11.2633 22.3157Z" fill="black"/>
</svg>
