<svg width="36" height="36" viewBox="0 0 36 36" fill="none" xmlns="http://www.w3.org/2000/svg">
<g clip-path="url(#clip0_2504_13)">
<path d="M18.2201 0C13.5043 0 8.97742 1.87493 5.64551 5.20906C2.31016 8.54451 0.435982 13.068 0.435059 17.785C0.435059 22.5 2.31082 27.0268 5.64551 30.3609C8.97742 33.6951 13.5043 35.57 18.2201 35.57C22.9359 35.57 27.4627 33.6951 30.7946 30.3609C34.1293 27.0268 36.0051 22.5 36.0051 17.785C36.0051 13.07 34.1293 8.54319 30.7946 5.20906C27.4627 1.87493 22.9359 0 18.2201 0Z" fill="url(#paint0_linear_2504_13)"/>
<path d="M8.48548 17.5971C13.6709 15.3384 17.1279 13.8492 18.8564 13.1297C23.7973 11.0753 24.8227 10.7185 25.4924 10.7064C25.6397 10.704 25.9676 10.7404 26.1816 10.9134C26.3594 11.0593 26.4094 11.2566 26.4344 11.3952C26.4567 11.5335 26.4872 11.849 26.4622 12.0952C26.1954 14.9074 25.0366 21.7319 24.4475 24.8817C24.2002 26.2145 23.7083 26.6614 23.2331 26.705C22.1994 26.8 21.4157 26.0225 20.4153 25.3669C18.8508 24.3407 17.9671 23.7021 16.447 22.7009C14.6908 21.5437 15.8301 20.9076 16.8305 19.8683C17.0918 19.5963 21.6436 15.4571 21.7297 15.0817C21.7409 15.0347 21.752 14.8596 21.6464 14.7674C21.5436 14.6748 21.3907 14.7065 21.2796 14.7315C21.1212 14.7671 18.6229 16.42 13.7765 19.6899C13.0679 20.1773 12.426 20.4149 11.848 20.4024C11.2144 20.3888 9.99164 20.0434 9.08294 19.7483C7.97138 19.3862 7.08491 19.1947 7.16272 18.5797C7.20162 18.2596 7.64347 17.932 8.48548 17.5971Z" fill="white"/>
</g>
<defs>
<linearGradient id="paint0_linear_2504_13" x1="1778.94" y1="0" x2="1778.94" y2="3557" gradientUnits="userSpaceOnUse">
<stop stop-color="#2AABEE"/>
<stop offset="1" stop-color="#229ED9"/>
</linearGradient>
<clipPath id="clip0_2504_13">
<rect width="35.57" height="35.57" fill="white" transform="translate(0.435059)"/>
</clipPath>
</defs>
</svg>
